<?xml version="1.0" standalone="no"?>
<!DOCTYPE svg PUBLIC "-//W3C//DTD SVG 20010904//EN"
 "http://www.w3.org/TR/2001/REC-SVG-20010904/DTD/svg10.dtd">
<svg version="1.0" xmlns="http://www.w3.org/2000/svg"
 width="701.000000pt" height="701.000000pt" viewBox="0 0 701.000000 701.000000"
 preserveAspectRatio="xMidYMid meet">
<metadata>
Created by potrace 1.14, written by Peter Selinger 2001-2017
</metadata>
<g transform="translate(0.000000,701.000000) scale(0.100000,-0.100000)"
fill="#000000" stroke="none">
<path d="M2935 6849 c-203 -83 -377 -152 -385 -156 -41 -15 -959 -378 -1275
-505 l-360 -143 0 -2617 c0 -1439 3 -2619 6 -2622 3 -3 164 -59 357 -125 l352
-118 0 1358 0 1358 28 13 c15 8 61 33 102 55 41 22 137 73 213 112 l137 73 83
-45 c45 -25 140 -75 210 -111 70 -37 141 -75 156 -84 l29 -16 0 -1501 c0
-1675 -1 -1545 10 -1544 10 2 -22 12 342 -113 179 -61 338 -111 355 -112 l30
-1 0 3498 c0 2325 -3 3497 -10 3496 -5 -1 -176 -68 -380 -150z m-777 -2582
c42 -21 101 -52 357 -188 l70 -38 1 -185 c1 -102 0 -186 -3 -186 -3 0 -38 17
-77 39 -39 21 -125 66 -191 101 -66 34 -139 73 -162 86 l-41 24 -79 -41 c-165
-86 -290 -153 -339 -180 -28 -16 -54 -29 -58 -29 -4 0 -5 84 -4 187 l3 187
110 58 c61 32 148 78 195 102 47 25 101 54 120 65 44 25 41 25 98 -2z m4 -480
c24 -13 93 -50 153 -82 61 -32 147 -78 192 -102 l83 -45 -2 -79 c-1 -43 -5
-79 -9 -79 -4 0 -70 33 -146 74 -76 41 -180 96 -231 124 l-93 49 -232 -123
c-128 -68 -235 -124 -239 -124 -5 0 -8 36 -8 79 l0 80 53 29 c28 16 108 59
177 95 69 36 150 79 180 96 30 16 60 30 67 30 7 1 32 -10 55 -22z"/>
<path d="M3713 3500 c0 -3055 2 -3500 14 -3500 16 0 210 64 858 285 237 80
437 148 445 150 8 2 209 70 445 150 237 81 472 160 523 176 l92 30 -2 2635 -3
2634 -287 115 c-158 63 -292 115 -297 115 -8 0 -12 -366 -13 -1165 l-3 -1166
-100 -53 c-55 -29 -145 -76 -200 -106 -55 -29 -117 -62 -138 -72 l-38 -19 -94
51 c-52 27 -137 72 -187 99 -51 27 -116 61 -144 76 l-52 27 0 1306 c-1 719 -1
1330 -1 1359 l-1 51 -405 161 c-223 89 -407 161 -409 161 -2 0 -3 -1575 -3
-3500z m862 327 c11 -8 70 -40 130 -72 61 -31 151 -79 201 -106 90 -48 121
-57 140 -40 5 5 52 31 104 58 52 28 147 78 211 111 64 34 119 62 123 62 3 0 6
-36 6 -79 0 -93 23 -72 -220 -199 -85 -44 -178 -93 -207 -109 l-51 -28 -44 24
c-23 13 -99 53 -168 89 -69 36 -156 83 -195 103 l-70 38 -2 80 c-2 86 3 94 42
68z m49 -301 c44 -24 131 -69 191 -101 61 -32 129 -68 152 -81 l42 -23 78 40
c86 45 234 123 330 175 34 19 65 34 68 34 3 0 4 -84 3 -186 l-3 -185 -50 -28
c-27 -15 -108 -58 -180 -96 -71 -37 -154 -81 -183 -97 -29 -16 -59 -28 -65
-26 -7 2 -117 58 -244 125 l-230 123 -1 185 c0 102 2 185 5 185 3 0 42 -20 87
-44z"/>
</g>
</svg>
